<!DOCTYPE svg PUBLIC "-//W3C//DTD SVG 1.1//EN" "http://www.w3.org/Graphics/SVG/1.1/DTD/svg11.dtd">
<!-- Uploaded to: SVG Repo, www.svgrepo.com, Transformed by: SVG Repo Mixer Tools -->
<svg fill="#000000" version="1.1" id="Layer_1" xmlns="http://www.w3.org/2000/svg" xmlns:xlink="http://www.w3.org/1999/xlink" viewBox="0 0 512.001 512.001" xml:space="preserve" width="64px" height="64px">
<g id="SVGRepo_bgCarrier" stroke-width="0"/>
<g id="SVGRepo_tracerCarrier" stroke-linecap="round" stroke-linejoin="round"/>
<g id="SVGRepo_iconCarrier"> <g> <g> <rect y="428.048" width="512.001" height="30.417"/> </g> </g> <g> <g> <path d="M501.345,93.296C490.733,74.917,473.6,61.77,453.1,56.278c-20.496-5.492-41.91-2.674-60.29,7.938l-150.076,86.646 L134.323,96.759l-61.968,35.778l67.441,77.755l-39.467,22.786l-47.324-36.882L0,226.799l27.801,48.153l44.966,77.883 l191.196-30.743l208.3-120.262C510.203,179.925,523.249,131.236,501.345,93.296z M119.483,140.45l15.888-9.173l136.239,67.988 l-67.374,38.898l-37.611-43.363h-0.001L119.483,140.45z M54.143,259.743l-12.594-21.81l8.92-5.151l21.436,16.706l-6.273,3.622 L54.143,259.743z M457.054,175.488L253.604,292.95L88.63,319.476l-19.278-33.391l56.868-32.832l-0.001-0.001l33.877-19.558 l37.611,43.363l138.117-79.742l-60.459-30.171l132.654-76.587c11.343-6.548,24.559-8.289,37.208-4.898 c12.652,3.39,23.227,11.504,29.775,22.847C488.52,131.92,480.47,161.969,457.054,175.488z"/> </g> </g> <g> <g> <rect x="342.412" y="151.221" transform="matrix(0.866 -0.5 0.5 0.866 -35.1324 201.747)" width="32.952" height="30.416"/> </g> </g> <g> <g> <rect x="391.585" y="122.833" transform="matrix(0.866 -0.5 0.5 0.866 -14.3498 222.5299)" width="32.952" height="30.416"/> </g> </g> </g>
</svg>